<svg width="4" height="7" viewBox="0 0 14 17" fill="none" xmlns="http://www.w3.org/2000/svg">
<path d="M0.0138166 16.3333C0.010958 16.2671 0.00524077 16.2004 0.00524077 16.1341C0.00476434 10.0481 0.0057172 6.29594 0 0.210439C0 0.0277716 0.0500255 -0.000480995 0.214395 6.11767e-06C3.67759 0.00536436 7.14031 0.00487726 10.6035 0.000980356C10.7326 0.000980356 10.8222 0.038001 10.9137 0.131527C11.9042 1.1457 12.8985 2.15646 13.8947 3.16478C13.9681 3.23882 14 3.3114 14 3.4171C13.9976 8.45824 13.9981 11.166 13.9976 16.2067C13.9976 16.2491 13.9919 16.291 13.989 16.3333C9.33 16.3333 4.67191 16.3333 0.0138166 16.3333ZM1.07436 8.16886C1.07436 10.8597 1.07531 12.3838 1.07102 15.0741C1.07102 15.2086 1.09961 15.2432 1.23444 15.2432C5.07783 15.2388 8.92122 15.2388 12.7646 15.2427C12.8942 15.2427 12.9309 15.2169 12.9309 15.0766C12.9266 10.8372 12.9266 8.93074 12.9314 4.69139C12.9314 4.536 12.8775 4.5209 12.7513 4.52139C11.7293 4.52577 10.7078 4.5209 9.68589 4.52724C9.54153 4.52821 9.49818 4.49801 9.49913 4.34165C9.50675 3.32114 9.49961 2.30064 9.50675 1.28063C9.50771 1.12962 9.4734 1.09309 9.32428 1.09358C6.63338 1.09893 3.94249 1.09893 1.25111 1.09358C1.10104 1.09309 1.06912 1.13157 1.06959 1.28111C1.07579 3.96608 1.07436 5.48438 1.07436 8.16886ZM12.5412 3.43074C11.9023 2.76145 11.2443 2.07219 10.573 1.36879C10.573 2.03517 10.5744 2.6879 10.5716 3.34063C10.5711 3.43464 10.6216 3.43172 10.6845 3.43123C10.9156 3.42977 11.1471 3.43074 11.3782 3.43074C11.7851 3.43074 12.1915 3.43074 12.5412 3.43074Z" fill="#E86B55"/>
<path d="M6.99894 8.17037C8.11389 8.17037 9.22883 8.17295 10.3438 8.16675C10.465 8.16624 10.5057 8.19826 10.4994 8.35319C10.4879 8.62278 10.4896 8.89391 10.4989 9.16401C10.5036 9.29881 10.4731 9.33341 10.3616 9.33289C9.26784 9.32721 8.17409 9.32979 7.08034 9.32979C5.93911 9.32979 4.79787 9.32721 3.65622 9.33341C3.53497 9.33393 3.49428 9.30191 3.50063 9.14697C3.51208 8.87739 3.51039 8.60625 3.50106 8.33615C3.4964 8.20136 3.52692 8.16675 3.63841 8.16727C4.75845 8.17243 5.87891 8.17037 6.99894 8.17037Z" fill="#E86B55"/>
<path d="M7.00127 11.663C5.88628 11.663 4.77129 11.6605 3.6563 11.6667C3.53505 11.6672 3.49393 11.6352 3.50071 11.4802C3.51216 11.2106 3.51046 10.9395 3.50113 10.6694C3.49647 10.5346 3.52699 10.5 3.63849 10.5005C4.72169 10.5062 5.80488 10.5036 6.88808 10.5036C8.03995 10.5036 9.19183 10.5062 10.3437 10.5C10.465 10.4995 10.5061 10.5315 10.4993 10.6864C10.4878 10.956 10.4895 11.2272 10.4989 11.4973C10.5035 11.6321 10.473 11.6667 10.3615 11.6661C9.24185 11.661 8.12135 11.663 7.00127 11.663Z" fill="#E86B55"/>
<path d="M5.23657 6.99626C4.70318 6.99626 4.16979 6.99212 3.63682 6.99987C3.52413 7.00142 3.49617 6.96317 3.5004 6.82982C3.5093 6.54656 3.50634 6.26279 3.50168 5.97954C3.49998 5.88029 3.50972 5.83274 3.60886 5.83326C4.70191 5.83791 5.79496 5.83739 6.88801 5.83377C6.97994 5.83326 7.00155 5.86789 6.99943 5.97385C6.99392 6.27003 6.99307 6.56672 6.99985 6.8629C7.00239 6.97558 6.97231 6.99987 6.88504 6.99884C6.33513 6.99419 5.78606 6.99626 5.23657 6.99626Z" fill="#E86B55"/>
</svg>
