<svg width="5" height="6" viewBox="0 0 21 22" fill="none" xmlns="http://www.w3.org/2000/svg">
<path d="M14.8048 3.30916C15.1009 2.74255 15.8018 2.51209 16.3284 2.86178C17.9262 3.92276 19.1973 5.41708 19.9884 7.18306C20.9363 9.29909 21.1398 11.6819 20.5661 13.9476C19.9925 16.2133 18.6751 18.2299 16.8262 19.6724C14.9773 21.1149 12.7047 21.8994 10.3744 21.8994C8.04414 21.8994 5.792 21.1149 3.98089 19.6724C2.16978 18.2299 0.905166 16.2133 0.390832 13.9476C-0.123502 11.682 0.142396 9.29912 1.14568 7.18308C1.98299 5.41709 3.29321 3.92278 4.91876 2.8618C5.45453 2.5121 6.14938 2.74256 6.43069 3.30917C6.712 3.87579 6.47156 4.56283 5.94692 4.92917C4.78075 5.74347 3.83902 6.85132 3.2246 8.14721C2.44405 9.79348 2.23718 11.6473 2.63733 13.41C3.03748 15.1727 4.02135 16.7416 5.43039 17.8639C6.83944 18.9862 8.5916 19.5965 10.4045 19.5965C12.2175 19.5965 13.9856 18.9862 15.4241 17.8639C16.8625 16.7416 17.8874 15.1727 18.3337 13.41C18.78 11.6473 18.6217 9.79346 17.8842 8.14719C17.3037 6.85131 16.391 5.74345 15.2462 4.92916C14.7311 4.56282 14.5086 3.87578 14.8048 3.30916Z" fill="#6CBBAE"/>
<path fill-rule="evenodd" clip-rule="evenodd" d="M10.6611 0C11.2978 0 11.8071 0.516075 11.7988 1.15269L11.7233 6.91612C11.715 7.55273 11.1921 8.0688 10.5555 8.0688C9.91879 8.0688 9.40943 7.55273 9.41776 6.91612L9.49321 1.15269C9.50154 0.516075 10.0244 0 10.6611 0Z" fill="#F17358"/>
</svg>
